<mxfile host="Electron" agent="Mozilla/5.0 (Windows NT 10.0; Win64; x64) AppleWebKit/537.36 (KHTML, like Gecko) draw.io/28.0.6 Chrome/138.0.7204.100 Electron/37.2.3 Safari/537.36" version="28.0.6">
  <diagram name="Página-1" id="TepeOPGRGm3IhVpaREGP">
    <mxGraphModel dx="1426" dy="841" grid="0" gridSize="10" guides="1" tooltips="1" connect="1" arrows="1" fold="1" page="1" pageScale="1" pageWidth="827" pageHeight="1169" math="0" shadow="0">
      <root>
        <mxCell id="0" />
        <mxCell id="1" parent="0" />
        <mxCell id="lXcXFDtrGPvDaCJNn1Lb-1" value="Asignación de usuarios gestor utec Blakcboard" style="shape=table;startSize=30;container=1;collapsible=0;childLayout=tableLayout;fixedRows=1;rowLines=0;fontStyle=0;strokeColor=default;fontSize=14;fontFamily=Times New Roman;" vertex="1" parent="1">
          <mxGeometry x="30" y="30" width="317" height="110" as="geometry" />
        </mxCell>
        <mxCell id="lXcXFDtrGPvDaCJNn1Lb-2" value="" style="shape=tableRow;horizontal=0;startSize=0;swimlaneHead=0;swimlaneBody=0;top=0;left=0;bottom=0;right=0;collapsible=0;dropTarget=0;fillColor=none;points=[[0,0.5],[1,0.5]];portConstraint=eastwest;strokeColor=inherit;fontSize=16;fontFamily=Times New Roman;" vertex="1" parent="lXcXFDtrGPvDaCJNn1Lb-1">
          <mxGeometry y="30" width="317" height="26" as="geometry" />
        </mxCell>
        <mxCell id="lXcXFDtrGPvDaCJNn1Lb-3" value="&lt;font style=&quot;font-size: 14px;&quot;&gt;Detalle&lt;/font&gt;&lt;div&gt;&lt;br&gt;&lt;/div&gt;" style="shape=partialRectangle;html=1;whiteSpace=wrap;connectable=0;fillColor=none;top=0;left=0;bottom=0;right=0;overflow=hidden;pointerEvents=1;strokeColor=inherit;fontSize=16;fontFamily=Times New Roman;" vertex="1" parent="lXcXFDtrGPvDaCJNn1Lb-2">
          <mxGeometry width="76" height="26" as="geometry">
            <mxRectangle width="76" height="26" as="alternateBounds" />
          </mxGeometry>
        </mxCell>
        <mxCell id="lXcXFDtrGPvDaCJNn1Lb-4" value="&lt;font style=&quot;font-size: 14px;&quot;&gt;Ciclo 01-2025&lt;/font&gt;" style="shape=partialRectangle;html=1;whiteSpace=wrap;connectable=0;fillColor=none;top=0;left=0;bottom=0;right=0;align=left;spacingLeft=6;overflow=hidden;strokeColor=inherit;fontSize=16;fontFamily=Times New Roman;" vertex="1" parent="lXcXFDtrGPvDaCJNn1Lb-2">
          <mxGeometry x="76" width="241" height="26" as="geometry">
            <mxRectangle width="241" height="26" as="alternateBounds" />
          </mxGeometry>
        </mxCell>
        <mxCell id="lXcXFDtrGPvDaCJNn1Lb-5" value="" style="shape=tableRow;horizontal=0;startSize=0;swimlaneHead=0;swimlaneBody=0;top=0;left=0;bottom=0;right=0;collapsible=0;dropTarget=0;fillColor=none;points=[[0,0.5],[1,0.5]];portConstraint=eastwest;strokeColor=inherit;fontSize=16;fontFamily=Times New Roman;" vertex="1" parent="lXcXFDtrGPvDaCJNn1Lb-1">
          <mxGeometry y="56" width="317" height="34" as="geometry" />
        </mxCell>
        <mxCell id="lXcXFDtrGPvDaCJNn1Lb-6" value="&lt;font style=&quot;font-size: 14px;&quot;&gt;Encargado&lt;/font&gt;" style="shape=partialRectangle;html=1;whiteSpace=wrap;connectable=0;fillColor=none;top=0;left=0;bottom=0;right=0;overflow=hidden;strokeColor=inherit;fontSize=16;fontFamily=Times New Roman;" vertex="1" parent="lXcXFDtrGPvDaCJNn1Lb-5">
          <mxGeometry width="76" height="34" as="geometry">
            <mxRectangle width="76" height="34" as="alternateBounds" />
          </mxGeometry>
        </mxCell>
        <mxCell id="lXcXFDtrGPvDaCJNn1Lb-7" value="&lt;font style=&quot;font-size: 14px;&quot;&gt;Juan Santos y René Cruz&lt;/font&gt;&lt;div&gt;&lt;br&gt;&lt;/div&gt;" style="shape=partialRectangle;html=1;whiteSpace=wrap;connectable=0;fillColor=none;top=0;left=0;bottom=0;right=0;align=left;spacingLeft=6;overflow=hidden;strokeColor=inherit;fontSize=16;fontFamily=Times New Roman;" vertex="1" parent="lXcXFDtrGPvDaCJNn1Lb-5">
          <mxGeometry x="76" width="241" height="34" as="geometry">
            <mxRectangle width="241" height="34" as="alternateBounds" />
          </mxGeometry>
        </mxCell>
        <mxCell id="lXcXFDtrGPvDaCJNn1Lb-8" value="" style="shape=tableRow;horizontal=0;startSize=0;swimlaneHead=0;swimlaneBody=0;top=0;left=0;bottom=0;right=0;collapsible=0;dropTarget=0;fillColor=none;points=[[0,0.5],[1,0.5]];portConstraint=eastwest;strokeColor=inherit;fontSize=16;fontFamily=Times New Roman;" vertex="1" parent="lXcXFDtrGPvDaCJNn1Lb-1">
          <mxGeometry y="90" width="317" height="20" as="geometry" />
        </mxCell>
        <mxCell id="lXcXFDtrGPvDaCJNn1Lb-9" value="" style="shape=partialRectangle;html=1;whiteSpace=wrap;connectable=0;fillColor=none;top=0;left=0;bottom=0;right=0;overflow=hidden;strokeColor=inherit;fontSize=16;fontFamily=Times New Roman;" vertex="1" parent="lXcXFDtrGPvDaCJNn1Lb-8">
          <mxGeometry width="76" height="20" as="geometry">
            <mxRectangle width="76" height="20" as="alternateBounds" />
          </mxGeometry>
        </mxCell>
        <mxCell id="lXcXFDtrGPvDaCJNn1Lb-10" value="" style="shape=partialRectangle;html=1;whiteSpace=wrap;connectable=0;fillColor=none;top=0;left=0;bottom=0;right=0;align=left;spacingLeft=6;overflow=hidden;strokeColor=inherit;fontSize=16;fontFamily=Times New Roman;" vertex="1" parent="lXcXFDtrGPvDaCJNn1Lb-8">
          <mxGeometry x="76" width="241" height="20" as="geometry">
            <mxRectangle width="241" height="20" as="alternateBounds" />
          </mxGeometry>
        </mxCell>
        <mxCell id="lXcXFDtrGPvDaCJNn1Lb-13" value="" style="edgeStyle=orthogonalEdgeStyle;rounded=0;orthogonalLoop=1;jettySize=auto;html=1;" edge="1" parent="1" source="lXcXFDtrGPvDaCJNn1Lb-11" target="lXcXFDtrGPvDaCJNn1Lb-12">
          <mxGeometry relative="1" as="geometry" />
        </mxCell>
        <mxCell id="lXcXFDtrGPvDaCJNn1Lb-11" value="Asignación de usuario gestor utec" style="rounded=0;whiteSpace=wrap;html=1;fillColor=#dae8fc;strokeColor=#6c8ebf;fontSize=14;fontFamily=Times New Roman;" vertex="1" parent="1">
          <mxGeometry x="354" y="199" width="120" height="60" as="geometry" />
        </mxCell>
        <mxCell id="lXcXFDtrGPvDaCJNn1Lb-15" value="" style="edgeStyle=orthogonalEdgeStyle;rounded=0;orthogonalLoop=1;jettySize=auto;html=1;" edge="1" parent="1" source="lXcXFDtrGPvDaCJNn1Lb-12" target="lXcXFDtrGPvDaCJNn1Lb-14">
          <mxGeometry relative="1" as="geometry" />
        </mxCell>
        <mxCell id="lXcXFDtrGPvDaCJNn1Lb-35" style="edgeStyle=orthogonalEdgeStyle;rounded=0;orthogonalLoop=1;jettySize=auto;html=1;exitX=1;exitY=0.5;exitDx=0;exitDy=0;entryX=1;entryY=0.5;entryDx=0;entryDy=0;" edge="1" parent="1" source="lXcXFDtrGPvDaCJNn1Lb-12" target="lXcXFDtrGPvDaCJNn1Lb-24">
          <mxGeometry relative="1" as="geometry" />
        </mxCell>
        <mxCell id="lXcXFDtrGPvDaCJNn1Lb-12" value="El área técnica crea o genera listado en excel de aulas del ciclo correspondiente" style="whiteSpace=wrap;html=1;fontSize=14;fontFamily=Times New Roman;rounded=0;" vertex="1" parent="1">
          <mxGeometry x="256" y="300" width="316" height="60" as="geometry" />
        </mxCell>
        <mxCell id="lXcXFDtrGPvDaCJNn1Lb-17" value="" style="edgeStyle=orthogonalEdgeStyle;rounded=0;orthogonalLoop=1;jettySize=auto;html=1;" edge="1" parent="1" source="lXcXFDtrGPvDaCJNn1Lb-14" target="lXcXFDtrGPvDaCJNn1Lb-16">
          <mxGeometry relative="1" as="geometry" />
        </mxCell>
        <mxCell id="lXcXFDtrGPvDaCJNn1Lb-14" value="El área técnica crea un archivo donde concatenará los campos de tal forma que el formato debe ser el siguiente: external_course_key_,person_key,role (archivo csv separado por comas" style="whiteSpace=wrap;html=1;fontSize=14;fontFamily=Times New Roman;rounded=0;" vertex="1" parent="1">
          <mxGeometry x="303.27" y="393" width="221.47" height="88" as="geometry" />
        </mxCell>
        <mxCell id="lXcXFDtrGPvDaCJNn1Lb-19" value="" style="edgeStyle=orthogonalEdgeStyle;rounded=0;orthogonalLoop=1;jettySize=auto;html=1;" edge="1" parent="1" source="lXcXFDtrGPvDaCJNn1Lb-16" target="lXcXFDtrGPvDaCJNn1Lb-18">
          <mxGeometry relative="1" as="geometry" />
        </mxCell>
        <mxCell id="lXcXFDtrGPvDaCJNn1Lb-16" value="Se debe ingresar con credenciales de admnistrador en el sitio de Blackboard" style="whiteSpace=wrap;html=1;fontSize=14;fontFamily=Times New Roman;rounded=0;" vertex="1" parent="1">
          <mxGeometry x="322" y="518" width="183" height="60" as="geometry" />
        </mxCell>
        <mxCell id="lXcXFDtrGPvDaCJNn1Lb-21" value="" style="edgeStyle=orthogonalEdgeStyle;rounded=0;orthogonalLoop=1;jettySize=auto;html=1;" edge="1" parent="1" source="lXcXFDtrGPvDaCJNn1Lb-18" target="lXcXFDtrGPvDaCJNn1Lb-20">
          <mxGeometry relative="1" as="geometry" />
        </mxCell>
        <mxCell id="lXcXFDtrGPvDaCJNn1Lb-18" value="Proceder a cargar el archivo creado en la siguiente ruta: Panel del admnistrador/Cursos/Inscribir usuarios/Ubicación del archivo(examinar)/Enviar" style="whiteSpace=wrap;html=1;fontSize=14;fontFamily=Times New Roman;rounded=0;" vertex="1" parent="1">
          <mxGeometry x="316.25" y="611" width="195.5" height="109" as="geometry" />
        </mxCell>
        <mxCell id="lXcXFDtrGPvDaCJNn1Lb-25" value="" style="edgeStyle=orthogonalEdgeStyle;rounded=0;orthogonalLoop=1;jettySize=auto;html=1;" edge="1" parent="1" source="lXcXFDtrGPvDaCJNn1Lb-20" target="lXcXFDtrGPvDaCJNn1Lb-24">
          <mxGeometry relative="1" as="geometry" />
        </mxCell>
        <mxCell id="lXcXFDtrGPvDaCJNn1Lb-20" value="Verificar que la inscripción del gestor a los cursos se haya realizado sin problemas según los logs devueltos" style="whiteSpace=wrap;html=1;fontSize=14;fontFamily=Times New Roman;rounded=0;" vertex="1" parent="1">
          <mxGeometry x="314" y="753" width="200" height="77" as="geometry" />
        </mxCell>
        <mxCell id="lXcXFDtrGPvDaCJNn1Lb-38" value="" style="edgeStyle=orthogonalEdgeStyle;rounded=0;orthogonalLoop=1;jettySize=auto;html=1;" edge="1" parent="1" source="lXcXFDtrGPvDaCJNn1Lb-24" target="lXcXFDtrGPvDaCJNn1Lb-37">
          <mxGeometry relative="1" as="geometry" />
        </mxCell>
        <mxCell id="lXcXFDtrGPvDaCJNn1Lb-24" value="&lt;font style=&quot;font-size: 17px;&quot;&gt;¿Actualización?&lt;/font&gt;" style="rhombus;whiteSpace=wrap;html=1;fontSize=14;fontFamily=Times New Roman;rounded=0;" vertex="1" parent="1">
          <mxGeometry x="325" y="873" width="178" height="80" as="geometry" />
        </mxCell>
        <mxCell id="lXcXFDtrGPvDaCJNn1Lb-36" value="SI" style="text;html=1;align=center;verticalAlign=middle;resizable=0;points=[];autosize=1;strokeColor=none;fillColor=none;" vertex="1" parent="1">
          <mxGeometry x="490" y="918" width="29" height="26" as="geometry" />
        </mxCell>
        <mxCell id="lXcXFDtrGPvDaCJNn1Lb-37" value="Notificar a la direcicón de educación virtual" style="whiteSpace=wrap;html=1;fontSize=14;fontFamily=Times New Roman;rounded=0;" vertex="1" parent="1">
          <mxGeometry x="145.27" y="957" width="158" height="41" as="geometry" />
        </mxCell>
        <mxCell id="lXcXFDtrGPvDaCJNn1Lb-39" value="NO" style="text;html=1;align=center;verticalAlign=middle;resizable=0;points=[];autosize=1;strokeColor=none;fillColor=none;" vertex="1" parent="1">
          <mxGeometry x="299" y="918" width="36" height="26" as="geometry" />
        </mxCell>
      </root>
    </mxGraphModel>
  </diagram>
</mxfile>
